name analog
datacolumns 19
datarows 72
range 0.48600000000000015 0.5215000000000002
endheader
time	ground_force_vx	ground_force_vy	ground_force_vz	ground_force_px	ground_force_py	ground_force_pz	l_ground_force_vx	l_ground_force_vy	l_ground_force_vz	l_ground_force_px	l_ground_force_py	l_ground_force_pz	ground_torque_x	ground_torque_y	ground_torque_z	l_ground_torque_x	l_ground_torque_y	l_ground_torque_z
0.48600000000000015	-0.0	-0.0	-0.0	-0.6486995220184326	-7.397823333740234	-800.3666381835938	-0.0	-0.0	-0.0	-0.0	-0.0	-0.0	-0.0	-0.0	-0.0	-0.0	-0.0	-0.0
0.48650000000000015	-0.0	-0.0	-0.0	-0.154117614030838	-7.170999526977539	-800.3057861328125	-0.0	-0.0	-0.0	-0.0	-0.0	-0.0	-0.0	-0.0	-0.0	-0.0	-0.0	-0.0
0.48700000000000015	-0.0	-0.0	-0.0	0.2998283505439758	-7.049120903015137	-799.1497192382812	-0.0	-0.0	-0.0	-0.0	-0.0	-0.0	-0.0	-0.0	-0.0	-0.0	-0.0	-0.0
0.48750000000000016	-0.0	-0.0	-0.0	0.9080289602279664	-7.081618309020996	-798.859375	-0.0	-0.0	-0.0	-0.0	-0.0	-0.0	-0.0	-0.0	-0.0	-0.0	-0.0	-0.0
0.48800000000000016	-0.0	-0.0	-0.0	0.9411177635192872	-7.146109580993652	-799.1492309570312	-0.0	-0.0	-0.0	-0.0	-0.0	-0.0	-0.0	-0.0	-0.0	-0.0	-0.0	-0.0
0.48850000000000016	-0.0	-0.0	-0.0	0.673620343208313	-6.758434295654297	-799.7220458984375	-0.0	-0.0	-0.0	-0.0	-0.0	-0.0	-0.0	-0.0	-0.0	-0.0	-0.0	-0.0
0.48900000000000016	-0.0	-0.0	-0.0	1.0951634645462036	-6.531134605407715	-797.968017578125	-0.0	-0.0	-0.0	-0.0	-0.0	-0.0	-0.0	-0.0	-0.0	-0.0	-0.0	-0.0
0.48950000000000016	-0.0	-0.0	-0.0	1.4026585817337036	-6.12531042098999	-799.8763427734375	-0.0	-0.0	-0.0	-0.0	-0.0	-0.0	-0.0	-0.0	-0.0	-0.0	-0.0	-0.0
0.49000000000000016	-0.0	-0.0	-0.0	1.3232767581939695	-6.100489139556885	-798.9713745117188	-0.0	-0.0	-0.0	-0.0	-0.0	-0.0	-0.0	-0.0	-0.0	-0.0	-0.0	-0.0
0.49050000000000016	-0.0	-0.0	-0.0	1.491724729537964	-5.436954498291016	-799.69775390625	-0.0	-0.0	-0.0	-0.0	-0.0	-0.0	-0.0	-0.0	-0.0	-0.0	-0.0	-0.0
0.49100000000000016	-0.0	-0.0	-0.0	1.184648871421814	-5.298044204711914	-798.539794921875	-0.0	-0.0	-0.0	-0.0	-0.0	-0.0	-0.0	-0.0	-0.0	-0.0	-0.0	-0.0
0.49150000000000016	-0.0	-0.0	-0.0	1.381052017211914	-4.905794143676758	-798.2855224609375	-0.0	-0.0	-0.0	-0.0	-0.0	-0.0	-0.0	-0.0	-0.0	-0.0	-0.0	-0.0
0.49200000000000016	-0.0	-0.0	-0.0	1.0845918655395508	-4.264205932617188	-797.4368286132812	-0.0	-0.0	-0.0	-0.0	-0.0	-0.0	-0.0	-0.0	-0.0	-0.0	-0.0	-0.0
0.49250000000000016	-0.0	-0.0	-0.0	0.9562004804611206	-3.754716873168945	-795.8583374023438	-0.0	-0.0	-0.0	-0.0	-0.0	-0.0	-0.0	-0.0	-0.0	-0.0	-0.0	-0.0
0.49300000000000016	-0.0	-0.0	-0.0	0.7913888692855835	-3.766467571258545	-796.2213745117188	-0.0	-0.0	-0.0	-0.0	-0.0	-0.0	-0.0	-0.0	-0.0	-0.0	-0.0	-0.0
0.49350000000000016	-0.0	-0.0	-0.0	0.5621770024299622	-3.4239673614501958	-796.1676025390625	-0.0	-0.0	-0.0	-0.0	-0.0	-0.0	-0.0	-0.0	-0.0	-0.0	-0.0	-0.0
0.49400000000000016	-0.0	-0.0	-0.0	0.1917024850845337	-3.0689902305603027	-797.3850708007812	-0.0	-0.0	-0.0	-0.0	-0.0	-0.0	-0.0	-0.0	-0.0	-0.0	-0.0	-0.0
0.49450000000000016	-0.0	-0.0	-0.0	0.4337145388126373	-3.018106698989868	-797.4314575195312	-0.0	-0.0	-0.0	-0.0	-0.0	-0.0	-0.0	-0.0	-0.0	-0.0	-0.0	-0.0
0.49500000000000016	-0.0	-0.0	-0.0	0.2038752436637878	-2.7247748374938965	-797.0263061523438	-0.0	-0.0	-0.0	-0.0	-0.0	-0.0	-0.0	-0.0	-0.0	-0.0	-0.0	-0.0
0.49550000000000016	-0.0	-0.0	-0.0	-0.0763698816299438	-2.750213384628296	-798.3378295898438	-0.0	-0.0	-0.0	-0.0	-0.0	-0.0	-0.0	-0.0	-0.0	-0.0	-0.0	-0.0
0.49600000000000016	-0.0	-0.0	-0.0	0.1403909623622894	-2.0748565196990967	-797.9319458007812	-0.0	-0.0	-0.0	-0.0	-0.0	-0.0	-0.0	-0.0	-0.0	-0.0	-0.0	-0.0
0.49650000000000016	-0.0	-0.0	-0.0	0.1527637839317321	-2.1903979778289795	-799.0430297851562	-0.0	-0.0	-0.0	-0.0	-0.0	-0.0	-0.0	-0.0	-0.0	-0.0	-0.0	-0.0
0.49700000000000016	-0.0	-0.0	-0.0	0.2796784341335296	-1.6284193992614746	-798.7911987304688	-0.0	-0.0	-0.0	-0.0	-0.0	-0.0	-0.0	-0.0	-0.0	-0.0	-0.0	-0.0
0.49750000000000016	-0.0	-0.0	-0.0	0.3450111150741577	-1.6182968616485596	-799.2462158203125	-0.0	-0.0	-0.0	-0.0	-0.0	-0.0	-0.0	-0.0	-0.0	-0.0	-0.0	-0.0
0.49800000000000016	-0.0	-0.0	-0.0	0.5094117522239685	-1.7942540645599363	-800.1572265625	-0.0	-0.0	-0.0	-0.0	-0.0	-0.0	-0.0	-0.0	-0.0	-0.0	-0.0	-0.0
0.49850000000000017	-0.0	-0.0	-0.0	1.0560214519500732	-1.7338746786117554	-799.1887817382812	-0.0	-0.0	-0.0	-0.0	-0.0	-0.0	-0.0	-0.0	-0.0	-0.0	-0.0	-0.0
0.49900000000000017	-0.0	-0.0	-0.0	1.0333069562911987	-1.336956024169922	-798.8345336914062	-0.0	-0.0	-0.0	-0.0	-0.0	-0.0	-0.0	-0.0	-0.0	-0.0	-0.0	-0.0
0.49950000000000017	-0.0	-0.0	-0.0	1.226851224899292	-1.4000556468963623	-798.73046875	-0.0	-0.0	-0.0	-0.0	-0.0	-0.0	-0.0	-0.0	-0.0	-0.0	-0.0	-0.0
0.5000000000000002	-0.0	-0.0	-0.0	1.4057369232177734	-0.9633190035820008	-798.3935546875	-0.0	-0.0	-0.0	-0.0	-0.0	-0.0	-0.0	-0.0	-0.0	-0.0	-0.0	-0.0
0.5005000000000002	-0.0	-0.0	-0.0	1.4797483682632446	-1.3524919748306274	-798.6434936523438	-0.0	-0.0	-0.0	-0.0	-0.0	-0.0	-0.0	-0.0	-0.0	-0.0	-0.0	-0.0
0.5010000000000001	-0.0	-0.0	-0.0	2.1252200603485107	-1.2636436223983765	-799.0795288085938	-0.0	-0.0	-0.0	-0.0	-0.0	-0.0	-0.0	-0.0	-0.0	-0.0	-0.0	-0.0
0.5015000000000002	-0.0	-0.0	-0.0	1.7111302614212036	-1.2478256225585938	-799.599365234375	-0.0	-0.0	-0.0	-0.0	-0.0	-0.0	-0.0	-0.0	-0.0	-0.0	-0.0	-0.0
0.5020000000000002	-0.0	-0.0	-0.0	1.6321825981140137	-2.201890230178833	-800.5147705078125	-0.0	-0.0	-0.0	-0.0	-0.0	-0.0	-0.0	-0.0	-0.0	-0.0	-0.0	-0.0
0.5025000000000002	-0.0	-0.0	-0.0	1.4969830513000488	-1.6210054159164429	-800.3057861328125	-0.0	-0.0	-0.0	-0.0	-0.0	-0.0	-0.0	-0.0	-0.0	-0.0	-0.0	-0.0
0.5030000000000001	-0.0	-0.0	-0.0	1.7407310009002686	-1.9439427852630613	-802.3197631835938	-0.0	-0.0	-0.0	-0.0	-0.0	-0.0	-0.0	-0.0	-0.0	-0.0	-0.0	-0.0
0.5035000000000002	-0.0	-0.0	-0.0	2.1144559383392334	-1.3103835582733154	-801.3280029296875	-0.0	-0.0	-0.0	-0.0	-0.0	-0.0	-0.0	-0.0	-0.0	-0.0	-0.0	-0.0
0.5040000000000002	-0.0	-0.0	-0.0	1.7041889429092407	-1.4876737594604492	-802.3555297851562	-0.0	-0.0	-0.0	-0.0	-0.0	-0.0	-0.0	-0.0	-0.0	-0.0	-0.0	-0.0
0.5045000000000002	-0.0	-0.0	-0.0	2.051841735839844	-1.3102387189865112	-801.5414428710938	-0.0	-0.0	-0.0	-0.0	-0.0	-0.0	-0.0	-0.0	-0.0	-0.0	-0.0	-0.0
0.5050000000000001	-0.0	-0.0	-0.0	2.2838737964630127	-1.35495126247406	-803.5905151367188	-0.0	-0.0	-0.0	-0.0	-0.0	-0.0	-0.0	-0.0	-0.0	-0.0	-0.0	-0.0
0.5055000000000002	-0.0	-0.0	-0.0	2.9256484508514404	-1.1855483055114746	-802.2459106445312	-0.0	-0.0	-0.0	-0.0	-0.0	-0.0	-0.0	-0.0	-0.0	-0.0	-0.0	-0.0
0.5060000000000002	-0.0	-0.0	-0.0	3.3798115253448486	-1.0695648193359375	-803.3372802734375	-0.0	-0.0	-0.0	-0.0	-0.0	-0.0	-0.0	-0.0	-0.0	-0.0	-0.0	-0.0
0.5065000000000002	-0.0	-0.0	-0.0	3.709089756011963	-0.6779074668884277	-801.1190795898438	-0.0	-0.0	-0.0	-0.0	-0.0	-0.0	-0.0	-0.0	-0.0	-0.0	-0.0	-0.0
0.5070000000000001	-0.0	-0.0	-0.0	3.292818784713745	-0.5538753271102905	-800.5957641601562	-0.0	-0.0	-0.0	-0.0	-0.0	-0.0	-0.0	-0.0	-0.0	-0.0	-0.0	-0.0
0.5075000000000002	-0.0	-0.0	-0.0	3.5799686908721924	-0.3951737284660339	-801.5801391601562	-0.0	-0.0	-0.0	-0.0	-0.0	-0.0	-0.0	-0.0	-0.0	-0.0	-0.0	-0.0
0.5080000000000002	-0.0	-0.0	-0.0	3.6304149627685542	-0.5423383116722107	-801.5807495117188	-0.0	-0.0	-0.0	-0.0	-0.0	-0.0	-0.0	-0.0	-0.0	-0.0	-0.0	-0.0
0.5085000000000002	-0.0	-0.0	-0.0	3.8213279247283936	-0.5148795247077942	-799.9817504882812	-0.0	-0.0	-0.0	-0.0	-0.0	-0.0	-0.0	-0.0	-0.0	-0.0	-0.0	-0.0
0.5090000000000001	-0.0	-0.0	-0.0	4.378484725952148	-0.5016274452209473	-800.8754272460938	-0.0	-0.0	-0.0	-0.0	-0.0	-0.0	-0.0	-0.0	-0.0	-0.0	-0.0	-0.0
0.5095000000000002	-0.0	-0.0	-0.0	4.570199489593506	-0.0960792005062103	-800.7139892578125	-0.0	-0.0	-0.0	-0.0	-0.0	-0.0	-0.0	-0.0	-0.0	-0.0	-0.0	-0.0
0.5100000000000002	-0.0	-0.0	-0.0	4.419132709503174	-0.7269467115402222	-800.2788696289062	-0.0	-0.0	-0.0	-0.0	-0.0	-0.0	-0.0	-0.0	-0.0	-0.0	-0.0	-0.0
0.5105000000000002	-0.0	-0.0	-0.0	4.248002052307129	-0.6724294424057007	-800.144775390625	-0.0	-0.0	-0.0	-0.0	-0.0	-0.0	-0.0	-0.0	-0.0	-0.0	-0.0	-0.0
0.5110000000000001	-0.0	-0.0	-0.0	4.001779556274414	-0.1316416263580322	-802.5844116210938	-0.0	-0.0	-0.0	-0.0	-0.0	-0.0	-0.0	-0.0	-0.0	-0.0	-0.0	-0.0
0.5115000000000002	-0.0	-0.0	-0.0	4.371315002441406	-0.4456520080566406	-801.3408203125	-0.0	-0.0	-0.0	-0.0	-0.0	-0.0	-0.0	-0.0	-0.0	-0.0	-0.0	-0.0
0.5120000000000002	-0.0	-0.0	-0.0	4.214709758758545	-0.205992504954338	-802.98193359375	-0.0	-0.0	-0.0	-0.0	-0.0	-0.0	-0.0	-0.0	-0.0	-0.0	-0.0	-0.0
0.5125000000000002	-0.0	-0.0	-0.0	4.1200270652771	-0.2894549071788788	-801.2550659179688	-0.0	-0.0	-0.0	-0.0	-0.0	-0.0	-0.0	-0.0	-0.0	-0.0	-0.0	-0.0
0.5130000000000001	-0.0	-0.0	-0.0	4.666834831237793	-0.1169934868812561	-803.2635498046875	-0.0	-0.0	-0.0	-0.0	-0.0	-0.0	-0.0	-0.0	-0.0	-0.0	-0.0	-0.0
0.5135000000000002	-0.0	-0.0	-0.0	4.549736022949219	0.54543536901474	-802.6672973632812	-0.0	-0.0	-0.0	-0.0	-0.0	-0.0	-0.0	-0.0	-0.0	-0.0	-0.0	-0.0
0.5140000000000002	-0.0	-0.0	-0.0	4.220911979675293	0.06113763153553	-801.1026000976562	-0.0	-0.0	-0.0	-0.0	-0.0	-0.0	-0.0	-0.0	-0.0	-0.0	-0.0	-0.0
0.5145000000000002	-0.0	-0.0	-0.0	4.159874439239502	0.3845917582511902	-802.4248046875	-0.0	-0.0	-0.0	-0.0	-0.0	-0.0	-0.0	-0.0	-0.0	-0.0	-0.0	-0.0
0.5150000000000001	-0.0	-0.0	-0.0	3.807889699935913	-0.1406852006912231	-802.2018432617188	-0.0	-0.0	-0.0	-0.0	-0.0	-0.0	-0.0	-0.0	-0.0	-0.0	-0.0	-0.0
0.5155000000000002	-0.0	-0.0	-0.0	4.005375862121582	-0.2482849657535553	-805.0267944335938	-0.0	-0.0	-0.0	-0.0	-0.0	-0.0	-0.0	-0.0	-0.0	-0.0	-0.0	-0.0
0.5160000000000002	-0.0	-0.0	-0.0	4.107999801635742	0.2065334767103195	-804.8970947265625	-0.0	-0.0	-0.0	-0.0	-0.0	-0.0	-0.0	-0.0	-0.0	-0.0	-0.0	-0.0
0.5165000000000002	-0.0	-0.0	-0.0	4.046953678131104	-0.1499213725328445	-806.5506591796875	-0.0	-0.0	-0.0	-0.0	-0.0	-0.0	-0.0	-0.0	-0.0	-0.0	-0.0	-0.0
0.5170000000000001	-0.0	-0.0	-0.0	3.495875120162964	-0.6239128112792969	-808.3319091796875	-0.0	-0.0	-0.0	-0.0	-0.0	-0.0	-0.0	-0.0	-0.0	-0.0	-0.0	-0.0
0.5175000000000002	-0.0	-0.0	-0.0	3.864553213119507	-0.559554398059845	-811.7349853515625	-0.0	-0.0	-0.0	-0.0	-0.0	-0.0	-0.0	-0.0	-0.0	-0.0	-0.0	-0.0
0.5180000000000002	-0.0	-0.0	-0.0	3.778915882110596	-0.1532215476036071	-811.81982421875	-0.0	-0.0	-0.0	-0.0	-0.0	-0.0	-0.0	-0.0	-0.0	-0.0	-0.0	-0.0
0.5185000000000002	-0.0	-0.0	-0.0	4.039844512939453	-0.1210212185978889	-813.6260986328125	-0.0	-0.0	-0.0	-0.0	-0.0	-0.0	-0.0	-0.0	-0.0	-0.0	-0.0	-0.0
0.5190000000000001	-0.0	-0.0	-0.0	3.632026672363281	0.1147115677595138	-814.4083862304688	-0.0	-0.0	-0.0	-0.0	-0.0	-0.0	-0.0	-0.0	-0.0	-0.0	-0.0	-0.0
0.5195000000000002	-0.0	-0.0	-0.0	3.450447797775269	1.2190892696380615	-816.7006225585938	-0.0	-0.0	-0.0	-0.0	-0.0	-0.0	-0.0	-0.0	-0.0	-0.0	-0.0	-0.0
0.5200000000000002	-0.0	-0.0	-0.0	2.970094680786133	1.2424471378326416	-814.6932373046875	-0.0	-0.0	-0.0	-0.0	-0.0	-0.0	-0.0	-0.0	-0.0	-0.0	-0.0	-0.0
0.5205000000000002	-0.0	-0.0	-0.0	2.9803264141082764	1.898130178451538	-814.0797119140625	-0.0	-0.0	-0.0	-0.0	-0.0	-0.0	-0.0	-0.0	-0.0	-0.0	-0.0	-0.0
0.5210000000000001	-0.0	-0.0	-0.0	2.0831098556518555	2.6449668407440186	-813.2677612304688	-0.0	-0.0	-0.0	-0.0	-0.0	-0.0	-0.0	-0.0	-0.0	-0.0	-0.0	-0.0
0.5215000000000002	-0.0	-0.0	-0.0	1.6908332109451294	3.331003904342652	-812.3138427734375	-0.0	-0.0	-0.0	-0.0	-0.0	-0.0	-0.0	-0.0	-0.0	-0.0	-0.0	-0.0
